<svg id="visual" viewBox="0 0 900 350" width="900" height="350" xmlns="http://www.w3.org/2000/svg" xmlns:xlink="http://www.w3.org/1999/xlink" version="1.1"><rect x="0" y="0" width="900" height="350" fill="#001220"></rect><path d="M537 350L558.7 341.7C580.3 333.3 623.7 316.7 624.2 300C624.7 283.3 582.3 266.7 565 250C547.7 233.3 555.3 216.7 573.7 200C592 183.3 621 166.7 628.7 150C636.3 133.3 622.7 116.7 617.8 100C613 83.3 617 66.7 609.8 50C602.7 33.3 584.3 16.7 575.2 8.3L566 0L900 0L900 8.3C900 16.7 900 33.3 900 50C900 66.7 900 83.3 900 100C900 116.7 900 133.3 900 150C900 166.7 900 183.3 900 200C900 216.7 900 233.3 900 250C900 266.7 900 283.3 900 300C900 316.7 900 333.3 900 341.7L900 350Z" fill="#fa7268"></path><path d="M647 350L655.2 341.7C663.3 333.3 679.7 316.7 686.3 300C693 283.3 690 266.7 688.2 250C686.3 233.3 685.7 216.7 685 200C684.3 183.3 683.7 166.7 688.2 150C692.7 133.3 702.3 116.7 697 100C691.7 83.3 671.3 66.7 656.3 50C641.3 33.3 631.7 16.7 626.8 8.3L622 0L900 0L900 8.3C900 16.7 900 33.3 900 50C900 66.7 900 83.3 900 100C900 116.7 900 133.3 900 150C900 166.7 900 183.3 900 200C900 216.7 900 233.3 900 250C900 266.7 900 283.3 900 300C900 316.7 900 333.3 900 341.7L900 350Z" fill="#ef5f67"></path><path d="M699 350L710.5 341.7C722 333.3 745 316.7 752.7 300C760.3 283.3 752.7 266.7 743.8 250C735 233.3 725 216.7 710.8 200C696.7 183.3 678.3 166.7 673.7 150C669 133.3 678 116.7 693.8 100C709.7 83.3 732.3 66.7 728.8 50C725.3 33.3 695.7 16.7 680.8 8.3L666 0L900 0L900 8.3C900 16.7 900 33.3 900 50C900 66.7 900 83.3 900 100C900 116.7 900 133.3 900 150C900 166.7 900 183.3 900 200C900 216.7 900 233.3 900 250C900 266.7 900 283.3 900 300C900 316.7 900 333.3 900 341.7L900 350Z" fill="#e34c67"></path><path d="M756 350L752.3 341.7C748.7 333.3 741.3 316.7 747.3 300C753.3 283.3 772.7 266.7 773.5 250C774.3 233.3 756.7 216.7 759.7 200C762.7 183.3 786.3 166.7 789.5 150C792.7 133.3 775.3 116.7 773 100C770.7 83.3 783.3 66.7 781.2 50C779 33.3 762 16.7 753.5 8.3L745 0L900 0L900 8.3C900 16.7 900 33.3 900 50C900 66.7 900 83.3 900 100C900 116.7 900 133.3 900 150C900 166.7 900 183.3 900 200C900 216.7 900 233.3 900 250C900 266.7 900 283.3 900 300C900 316.7 900 333.3 900 341.7L900 350Z" fill="#d53867"></path><path d="M818 350L824.8 341.7C831.7 333.3 845.3 316.7 850.2 300C855 283.3 851 266.7 840.3 250C829.7 233.3 812.3 216.7 803.8 200C795.3 183.3 795.7 166.7 799.7 150C803.7 133.3 811.3 116.7 820.7 100C830 83.3 841 66.7 839.5 50C838 33.3 824 16.7 817 8.3L810 0L900 0L900 8.3C900 16.7 900 33.3 900 50C900 66.7 900 83.3 900 100C900 116.7 900 133.3 900 150C900 166.7 900 183.3 900 200C900 216.7 900 233.3 900 250C900 266.7 900 283.3 900 300C900 316.7 900 333.3 900 341.7L900 350Z" fill="#c62368"></path></svg>